<?xml version="1.0" standalone="no"?>
<!DOCTYPE svg PUBLIC "-//W3C//DTD SVG 20010904//EN"
 "http://www.w3.org/TR/2001/REC-SVG-20010904/DTD/svg10.dtd">
<svg version="1.0" xmlns="http://www.w3.org/2000/svg"
 width="647.000000pt" height="624.000000pt" viewBox="0 0 647.000000 624.000000"
 preserveAspectRatio="xMidYMid meet">

<g transform="translate(0.000000,624.000000) scale(0.100000,-0.100000)"
fill="#000000" stroke="none">
<path d="M3226 5823 c-21 -81 -134 -179 -279 -240 -45 -19 -176 -59 -292 -88
-261 -66 -378 -108 -575 -206 -283 -140 -508 -307 -740 -545 -159 -164 -245
-279 -380 -508 -122 -209 -172 -278 -261 -361 -71 -65 -141 -102 -212 -111
l-48 -7 28 -17 c68 -41 123 -137 149 -262 12 -55 15 -116 13 -248 -9 -458 -3
-560 52 -815 90 -413 281 -808 548 -1130 146 -176 232 -316 261 -425 17 -62
15 -149 -4 -194 l-16 -38 23 16 c67 50 108 61 222 60 97 0 122 -4 210 -33 55
-18 159 -59 230 -91 179 -80 249 -106 400 -145 222 -59 354 -76 608 -82 257
-6 376 3 597 47 191 38 338 86 543 176 204 90 315 124 428 131 103 7 182 -13
233 -58 l34 -30 -20 53 c-53 139 19 314 244 593 138 172 190 247 277 397 160
279 273 608 322 943 18 124 20 180 18 485 -3 329 -2 349 19 424 27 97 57 149
115 203 l44 41 -43 7 c-149 22 -293 164 -457 451 -162 286 -308 467 -537 672
-185 165 -380 296 -612 413 -183 92 -307 135 -569 198 -256 61 -370 112 -467
204 -44 42 -82 103 -82 132 0 25 -17 17 -24 -12z m17 -200 c9 -45 61 -107 125
-150 78 -52 192 -93 372 -133 441 -99 816 -297 1165 -616 181 -165 330 -354
461 -584 102 -179 147 -244 214 -311 73 -73 142 -109 212 -109 l53 0 -30 -18
c-125 -76 -167 -240 -148 -568 28 -475 -56 -876 -273 -1305 -81 -160 -177
-304 -299 -449 -177 -211 -235 -316 -243 -441 -4 -64 -1 -82 18 -120 l22 -44
-28 26 c-58 53 -91 64 -194 63 -114 -1 -198 -25 -395 -116 -210 -96 -448 -168
-670 -204 -156 -24 -482 -30 -648 -10 -310 36 -493 89 -816 236 -128 58 -277
100 -356 100 -62 0 -126 -21 -171 -55 l-33 -25 19 42 c55 122 -11 285 -215
528 -302 362 -492 779 -568 1245 -18 114 -21 176 -22 500 0 323 -3 377 -18
422 -24 71 -75 144 -119 168 l-38 21 50 1 c77 1 146 40 232 132 40 43 96 117
123 164 28 48 74 128 104 179 167 288 480 611 776 803 269 173 495 270 800
339 183 42 305 85 384 136 64 41 119 107 128 153 3 15 9 27 13 27 4 0 10 -12
13 -27z"/>
<path d="M3214 5408 c-12 -42 -64 -103 -119 -140 -66 -44 -169 -79 -335 -113
-253 -53 -538 -171 -755 -312 -316 -207 -587 -502 -766 -836 -72 -132 -133
-221 -185 -267 -50 -44 -130 -80 -177 -80 l-39 0 45 -44 c96 -93 113 -164 101
-416 -12 -237 -8 -406 12 -549 56 -411 254 -849 529 -1166 161 -185 214 -283
215 -390 0 -33 -4 -74 -9 -91 l-9 -31 46 25 c34 19 64 27 121 30 102 6 172
-14 354 -99 652 -305 1324 -306 1965 -5 192 90 229 101 342 101 78 0 103 -4
139 -22 25 -12 46 -21 47 -20 2 1 -2 23 -7 47 -24 106 22 227 141 370 38 47
98 119 132 160 243 296 426 735 472 1130 19 161 20 308 4 487 -19 220 12 356
102 437 22 20 40 38 40 41 0 3 -12 5 -28 5 -125 0 -236 105 -366 348 -112 209
-228 365 -401 537 -190 190 -365 315 -600 430 -181 89 -339 143 -540 185 -198
42 -290 78 -358 140 -29 27 -62 67 -72 89 -20 46 -31 51 -41 19z m-50 -430
c12 -88 26 -238 26 -273 0 -32 -2 -35 -29 -35 l-29 0 -7 100 c-4 55 -10 100
-14 100 -4 0 -14 -46 -22 -102 -13 -99 -15 -103 -40 -106 -25 -3 -28 3 -68
110 -37 102 -41 108 -36 63 19 -200 20 -182 -9 -187 -15 -3 -28 -3 -30 1 -6 8
-38 332 -34 335 2 2 22 6 44 10 l41 6 40 -113 c45 -125 42 -127 63 35 l12 87
31 4 c18 2 37 5 44 5 7 1 14 -16 17 -40z m166 13 c0 -9 -5 -67 -10 -130 -13
-139 -10 -151 35 -151 28 0 36 5 40 23 4 18 25 230 25 260 0 4 14 7 30 7 35 0
35 4 20 -169 -6 -71 -15 -122 -25 -137 -32 -49 -130 -48 -174 2 -23 27 -23 32
-17 143 10 173 12 178 47 173 18 -3 29 -10 29 -21z m298 -20 c12 -7 12 -19 2
-66 -7 -32 -8 -61 -3 -66 4 -4 24 -10 43 -11 l34 -3 15 62 c14 60 16 62 40 56
14 -3 28 -7 30 -9 2 -2 -13 -78 -34 -169 -40 -169 -46 -180 -85 -155 -12 8
-12 18 3 81 10 39 16 73 14 75 -1 2 -21 6 -44 10 l-40 6 -18 -71 c-16 -68 -19
-71 -46 -71 -17 0 -29 5 -29 13 0 6 17 83 37 170 38 160 44 172 81 148z
m-1006 -87 c29 -27 29 -52 -1 -62 -23 -8 -30 -6 -39 9 -16 26 -58 24 -72 -2
-9 -16 -8 -26 5 -45 13 -21 23 -24 74 -24 71 0 105 -22 122 -80 14 -46 -2 -79
-54 -110 -50 -31 -100 -26 -131 11 -32 38 -33 55 -3 63 33 9 35 8 42 -13 8
-25 38 -35 63 -22 28 15 35 40 17 67 -13 21 -24 24 -74 24 -43 0 -65 5 -84 20
-32 26 -51 79 -38 111 25 66 124 96 173 53z m1392 -34 c10 -10 -26 -335 -38
-347 -3 -3 -18 -1 -32 6 -23 10 -25 15 -19 51 6 36 4 40 -24 54 -43 23 -56 20
-84 -15 -22 -28 -26 -30 -48 -19 -13 7 -25 14 -27 15 -2 2 45 65 103 140 99
126 109 136 134 130 14 -3 30 -10 35 -15z m-1608 -196 c110 -118 117 -127 99
-140 -26 -19 -35 -18 -67 13 l-28 26 -40 -18 c-41 -19 -42 -20 -24 -87 3 -11
-5 -22 -24 -32 l-29 -15 -37 167 c-20 92 -36 172 -36 178 0 11 36 32 56 33 6
1 64 -56 130 -125z m1813 -37 c-21 -61 -39 -113 -39 -116 0 -3 39 34 88 81
l87 87 33 -20 c17 -12 32 -26 32 -32 0 -5 -34 -65 -76 -131 -112 -176 -97
-160 -124 -138 l-23 18 63 100 62 99 -44 -40 c-23 -22 -64 -59 -89 -83 -41
-38 -49 -43 -68 -33 -11 7 -21 13 -21 14 0 2 16 50 35 107 19 57 33 105 32
107 -2 2 -28 -36 -58 -84 -31 -48 -60 -88 -65 -90 -5 -2 -18 3 -29 11 -18 13
-14 21 74 159 l92 146 39 -25 39 -26 -40 -111z m-2083 56 c12 -16 9 -21 -18
-44 l-31 -26 77 -108 c43 -59 80 -113 82 -120 6 -15 -31 -39 -46 -30 -5 3 -44
55 -86 115 l-77 109 -28 -20 c-34 -24 -46 -24 -58 -1 -9 16 2 28 72 80 45 33
86 61 91 61 5 1 15 -7 22 -16z m2418 -152 c33 -35 34 -32 -34 -147 -27 -46
-50 -87 -50 -89 0 -3 43 24 97 59 101 68 109 70 147 27 18 -20 17 -22 -100
-146 l-118 -125 -20 20 -20 20 29 32 c16 18 54 59 85 91 l55 59 -103 -66 c-56
-36 -106 -66 -110 -66 -4 0 -15 7 -25 14 -16 13 -14 19 34 102 77 134 77 136
-13 40 -83 -88 -83 -88 -102 -67 -18 20 -18 21 9 53 40 48 199 216 206 217 3
1 18 -12 33 -28z m-2554 -127 c92 -103 111 -130 103 -143 -6 -9 -17 -17 -25
-19 -13 -2 -228 228 -228 244 0 7 30 44 35 44 1 0 53 -57 115 -126z m1803 -42
c15 -31 28 -62 27 -68 0 -13 47 -7 56 7 7 13 51 11 59 -2 5 -7 12 -5 23 4 26
23 75 26 70 5 -1 -7 9 -48 22 -90 22 -68 27 -77 45 -71 29 10 69 7 73 -6 2 -7
14 -5 34 5 34 18 63 12 54 -11 -3 -9 2 -46 11 -84 l16 -69 37 5 c30 4 40 1 52
-15 10 -15 18 -18 28 -11 20 12 67 11 75 -1 4 -6 2 -17 -4 -23 -15 -19 -9
-167 7 -167 6 0 22 -10 34 -22 15 -15 32 -21 51 -19 43 4 59 -13 41 -47 -8
-15 -14 -45 -14 -67 -1 -22 -7 -57 -14 -77 -15 -41 -12 -48 19 -48 26 0 45
-18 45 -42 0 -14 8 -18 34 -18 41 0 69 -27 44 -41 -9 -5 -22 -26 -28 -47 -7
-20 -23 -56 -37 -80 -14 -24 -23 -44 -21 -46 1 -1 16 -8 31 -16 18 -9 30 -25
34 -42 3 -18 12 -28 23 -28 9 0 25 -8 34 -19 16 -17 15 -20 -16 -53 -18 -19
-48 -56 -66 -82 l-33 -47 25 -20 c17 -13 26 -30 26 -47 0 -16 8 -32 20 -39 10
-7 24 -22 30 -33 9 -17 8 -22 -7 -27 -10 -3 -36 -23 -59 -43 -22 -20 -49 -42
-59 -48 -19 -10 -19 -11 4 -36 17 -18 22 -33 19 -55 -3 -23 0 -32 12 -36 9 -3
22 -17 28 -30 11 -23 9 -27 -11 -34 -13 -5 -49 -27 -81 -50 -32 -22 -63 -42
-69 -44 -9 -3 -8 -11 2 -30 8 -15 12 -40 8 -59 -3 -21 0 -41 9 -53 22 -30 18
-65 -7 -65 -12 0 -52 -10 -89 -22 l-67 -23 5 -36 c3 -24 -1 -41 -11 -50 -12
-12 -13 -17 0 -36 20 -31 14 -69 -12 -66 -11 2 -50 -3 -87 -9 -59 -11 -69 -16
-79 -39 -6 -15 -17 -30 -25 -33 -11 -4 -12 -10 -2 -31 17 -37 -3 -78 -35 -70
-13 4 -51 -1 -84 -9 -106 -28 -179 -18 -235 31 -15 13 -23 12 -71 -11 -30 -14
-84 -31 -121 -38 -36 -7 -66 -15 -66 -19 0 -4 14 -9 32 -13 48 -10 186 -80
242 -123 53 -41 113 -109 104 -118 -3 -4 -56 14 -117 39 -61 24 -111 43 -111
42 0 -1 11 -36 25 -77 l25 -74 -28 31 c-15 17 -51 59 -81 93 -29 34 -77 76
-107 92 -59 34 -61 38 -48 131 l6 45 59 7 c32 3 94 19 136 36 l78 30 2 60 c3
66 26 121 67 159 19 18 24 30 20 48 -6 22 -5 23 21 13 20 -7 31 -7 41 1 8 6
22 9 33 6 16 -4 19 2 24 38 2 24 14 57 27 75 19 26 21 36 12 55 -11 23 -10 24
14 15 16 -7 32 -6 44 0 10 5 26 7 34 4 12 -5 16 0 16 20 0 14 7 44 16 66 13
33 14 43 4 55 -17 21 -7 29 18 16 28 -15 32 -14 32 5 0 13 7 15 34 11 l34 -5
-14 34 c-9 22 -12 48 -8 75 6 34 4 45 -11 56 -17 12 -16 13 13 13 22 0 32 5
32 15 0 10 10 15 29 15 40 0 44 10 20 56 -11 21 -19 54 -17 71 1 18 -3 38 -10
45 -17 17 -15 28 6 28 9 0 23 9 30 20 7 11 22 20 33 20 20 0 20 1 -5 30 -14
17 -28 46 -32 66 -3 19 -15 41 -27 49 -20 14 -19 14 5 20 15 4 25 13 24 22 0
8 8 20 19 27 11 6 22 12 24 14 3 1 -10 16 -28 32 -17 16 -37 43 -42 59 -6 17
-20 33 -32 37 -19 6 -19 8 -4 19 9 7 17 22 17 33 0 12 10 26 21 33 21 11 20
12 -18 29 -22 10 -50 32 -63 50 -17 24 -28 31 -47 27 -23 -4 -23 -3 -8 19 8
13 15 34 15 48 0 14 7 29 16 34 14 8 12 10 -10 16 -14 3 -41 20 -61 37 -24 22
-40 29 -55 24 -24 -7 -27 7 -5 25 11 9 12 16 4 26 -6 7 -8 22 -4 34 5 15 2 20
-12 20 -10 0 -36 9 -57 21 -21 11 -48 18 -58 15 -16 -4 -19 -1 -14 17 3 11 0
27 -6 34 -8 10 -8 20 0 39 14 28 -2 40 -40 31 -11 -3 -41 1 -65 9 -36 12 -47
13 -60 3 -13 -11 -15 -10 -12 11 1 14 -1 33 -6 43 -4 9 -5 26 -2 37 7 28 -7
33 -48 20 -27 -9 -44 -9 -70 0 -28 9 -39 9 -50 0 -12 -10 -15 -9 -15 8 0 11
-7 25 -15 32 -9 7 -13 21 -10 30 3 9 -1 23 -10 30 -8 7 -15 26 -15 44 0 17 -1
44 -1 60 -1 16 4 38 10 50 13 23 64 56 87 56 8 0 26 7 39 16 14 9 33 13 45 9
12 -4 26 0 36 9 28 29 48 18 77 -42z m-1974 22 l22 -16 -21 -23 c-19 -20 -25
-22 -41 -12 -26 16 -53 -2 -57 -36 -3 -20 3 -30 21 -38 20 -9 34 -6 79 15 71
33 90 33 133 -5 29 -26 35 -38 35 -70 0 -32 -7 -48 -38 -80 -42 -45 -83 -54
-126 -25 -31 20 -32 27 -6 51 16 14 23 16 32 7 20 -20 66 -14 78 8 30 56 -26
86 -97 51 -66 -32 -105 -28 -142 14 -35 40 -38 62 -16 105 33 63 96 87 144 54z
m1118 -25 c-15 -12 -38 -42 -51 -68 -13 -25 -37 -58 -53 -73 -38 -36 -116 -68
-165 -68 -33 0 -48 -8 -86 -41 -26 -23 -63 -50 -82 -61 -19 -10 -27 -17 -17
-14 10 3 23 6 28 6 6 0 31 20 57 44 26 24 58 47 71 51 12 4 67 4 121 0 90 -6
97 -8 84 -24 -7 -9 -24 -32 -36 -51 -40 -59 -161 -89 -226 -56 -24 12 -37 11
-112 -8 -102 -26 -148 -52 -184 -106 -30 -46 -31 -50 -12 -50 8 0 28 24 45 54
39 70 67 80 190 71 81 -7 87 -9 74 -24 -8 -9 -24 -31 -36 -50 -42 -66 -66 -75
-195 -81 -129 -6 -153 -15 -204 -82 -41 -53 -81 -139 -62 -131 8 3 29 34 45
68 42 89 60 99 196 105 l111 5 -36 -41 c-21 -22 -50 -57 -65 -77 -37 -49 -70
-64 -162 -76 -120 -15 -142 -43 -188 -249 -10 -43 13 -10 28 41 31 106 74 148
175 167 30 6 67 15 81 20 l27 8 -32 -62 c-17 -34 -37 -76 -44 -93 -16 -38 -73
-68 -150 -78 -61 -8 -69 -18 -89 -115 -28 -140 -34 -186 -25 -210 l9 -25 17
34 c15 28 16 41 7 75 -22 88 26 164 131 211 35 15 70 34 79 42 13 11 9 -10
-15 -95 -37 -125 -63 -172 -112 -202 -73 -45 -122 -154 -109 -239 l8 -46 13
64 c15 71 28 95 90 162 24 25 50 60 57 78 14 32 14 30 20 -60 15 -211 4 -271
-62 -320 -24 -18 -29 -30 -33 -77 -7 -82 6 -125 67 -219 30 -45 57 -83 59 -83
9 0 -6 32 -40 81 -62 92 -59 189 9 299 l44 70 6 -45 c4 -24 18 -72 32 -104 30
-71 32 -132 8 -216 -9 -33 -17 -74 -17 -91 0 -40 41 -96 128 -175 53 -49 66
-57 66 -41 0 12 -9 23 -20 27 -34 11 -80 55 -102 98 -16 32 -19 51 -14 91 4
28 10 79 13 114 l5 63 20 -33 c11 -18 44 -58 73 -88 64 -68 79 -110 72 -203
-7 -101 12 -146 85 -198 27 -19 26 -19 -8 38 -19 31 -34 66 -33 77 0 26 27
155 28 140 1 -7 30 -31 66 -55 77 -52 102 -94 111 -190 4 -35 10 -74 15 -86 9
-24 82 -55 177 -73 l62 -13 0 -77 0 -78 -43 -25 c-41 -24 -108 -90 -174 -172
l-32 -40 24 73 c13 39 20 72 16 72 -5 0 -57 -20 -117 -45 -59 -24 -109 -43
-111 -41 -2 2 11 20 27 42 61 76 186 154 305 190 33 10 64 21 68 24 4 4 -17
12 -47 19 -30 7 -99 34 -153 61 -54 28 -103 50 -110 50 -6 0 -33 -18 -58 -40
-38 -33 -53 -40 -88 -40 -55 1 -115 29 -169 79 -24 22 -63 51 -87 64 l-43 25
53 6 c173 18 204 18 244 2 43 -18 43 -18 -25 36 -58 46 -95 53 -161 34 -59
-18 -104 -14 -159 14 -43 22 -61 42 -90 100 -12 25 -34 60 -47 78 l-25 34 30
-16 c20 -11 57 -16 107 -16 94 0 122 -14 175 -85 25 -34 48 -55 60 -55 14 0
-6 26 -71 90 -106 106 -134 123 -198 119 -95 -5 -112 -1 -151 39 -35 35 -74
117 -87 185 -6 29 -6 29 18 14 13 -9 50 -22 83 -31 65 -16 107 -50 137 -107
19 -39 45 -69 58 -69 16 0 -120 194 -147 210 -15 9 -43 20 -63 24 -48 9 -113
66 -134 118 -16 41 -45 172 -45 206 0 13 4 12 23 -5 12 -11 48 -36 81 -54 35
-19 67 -46 78 -66 11 -18 21 -33 23 -33 2 0 -4 23 -13 52 -15 44 -26 58 -87
104 -38 29 -78 66 -88 83 -19 32 -24 93 -19 243 l2 86 65 -67 c82 -85 96 -120
104 -251 5 -85 8 -97 13 -65 10 56 -7 236 -25 271 -9 16 -34 49 -56 73 -54 58
-68 109 -48 176 23 76 87 214 87 187 0 -13 12 -54 28 -90 22 -55 27 -82 27
-152 0 -49 -6 -99 -13 -117 -12 -27 -12 -35 1 -53 15 -21 16 -20 21 31 5 50
22 195 33 281 4 28 -2 51 -21 88 -19 37 -26 64 -26 107 0 74 25 118 105 189
l60 52 -3 -91 c-4 -99 -25 -174 -68 -239 -13 -21 -24 -48 -24 -60 0 -13 21 19
49 77 26 55 61 116 78 135 17 19 36 52 43 73 10 34 9 44 -9 87 -41 96 -20 145
100 226 l76 51 -5 -76 c-2 -42 -12 -95 -22 -117 l-18 -42 34 22 c42 27 65 79
53 120 -14 48 -11 83 11 126 28 55 77 89 146 101 33 6 79 17 104 24 l45 14
-34 -26 c-22 -17 -46 -55 -71 -107 -38 -84 -88 -140 -134 -152 -23 -5 -45 -34
-27 -34 48 0 174 100 186 148 10 42 43 90 82 119 29 23 48 27 133 34 55 4 107
12 117 18 30 17 30 12 0 -10z m1914 -161 c10 -13 18 -29 19 -36 0 -13 -192
-256 -212 -268 -9 -6 -37 23 -38 38 0 3 12 20 26 37 l25 31 -26 35 c-31 40
-31 40 -76 21 -31 -13 -34 -12 -52 11 -11 13 -18 25 -16 27 4 3 319 124 327
125 2 1 12 -9 23 -21z m-3192 -57 c17 -16 31 -36 31 -45 0 -11 9 -16 30 -16
17 0 48 -11 70 -25 22 -14 46 -25 55 -25 20 0 19 -13 -4 -41 l-20 -24 -49 28
c-58 31 -80 34 -98 10 -22 -29 -17 -38 41 -77 30 -20 55 -40 55 -44 0 -4 -7
-16 -15 -26 -14 -18 -21 -15 -155 74 -77 51 -140 97 -140 102 0 14 78 126 92
131 36 15 77 6 107 -22z m1574 -342 c-2 -123 1 -199 7 -199 6 0 10 50 10 123
0 96 3 127 16 145 16 23 16 23 30 4 13 -19 10 -90 -11 -234 -3 -23 -1 -38 5
-38 5 0 10 21 10 46 0 53 27 121 43 105 12 -12 14 -51 4 -116 -7 -50 -7 -50 7
-17 18 39 36 42 37 5 0 -22 4 -17 16 22 8 27 22 55 31 61 28 21 34 -18 12 -82
-11 -32 -18 -60 -15 -62 8 -9 11 -2 54 112 37 97 60 135 84 136 21 1 1 -76
-43 -167 -27 -57 -46 -103 -42 -103 4 0 41 68 82 151 47 94 86 161 105 177
l30 25 3 -31 c3 -26 -15 -62 -89 -182 -50 -83 -89 -153 -87 -156 3 -2 33 42
68 98 73 121 60 104 88 112 41 13 25 -32 -48 -135 -73 -102 -96 -146 -35 -66
32 41 62 67 79 67 18 0 1 -44 -34 -86 -22 -27 -40 -53 -39 -59 0 -5 7 0 16 13
8 12 22 22 29 22 19 0 18 -34 -1 -50 -9 -7 -13 -15 -10 -18 3 -3 24 13 48 35
47 46 95 67 84 38 -4 -9 -7 -20 -7 -25 0 -4 -22 -25 -50 -46 -27 -21 -48 -40
-45 -42 2 -3 47 30 99 72 63 50 104 76 121 76 54 0 18 -42 -115 -134 -125 -86
-75 -62 91 44 128 82 209 119 209 94 -1 -24 -46 -57 -167 -124 -148 -80 -180
-106 -48 -37 56 29 93 43 109 40 42 -8 14 -45 -56 -73 -54 -21 -58 -25 -39
-34 40 -18 22 -36 -61 -62 -35 -11 -58 -23 -58 -32 0 -9 6 -12 18 -7 32 12 71
17 88 11 34 -13 -7 -33 -116 -56 -61 -13 -108 -25 -106 -27 2 -2 64 8 137 22
74 14 145 23 159 20 l25 -7 -24 -19 c-13 -11 -39 -19 -59 -19 -19 0 -33 -3
-29 -6 3 -3 53 -1 110 6 82 9 110 9 128 0 l22 -12 -24 -19 c-20 -15 -47 -19
-159 -22 -74 -2 -46 -3 64 -1 166 3 203 1 229 -13 30 -15 30 -16 11 -30 -16
-13 -61 -14 -289 -10 l-270 5 198 -12 c163 -10 201 -15 215 -29 15 -16 15 -19
2 -27 -21 -13 -27 -13 -242 15 -238 31 -283 31 -83 0 149 -24 195 -36 195 -54
0 -19 -44 -19 -122 0 -45 11 -86 18 -91 16 -6 -2 15 -9 46 -16 60 -13 79 -27
56 -42 -13 -9 -36 -7 -76 7 -12 5 -15 4 -8 -3 6 -6 33 -18 61 -27 29 -9 60
-26 69 -36 17 -19 17 -20 -2 -20 -40 0 -31 -14 25 -39 81 -36 107 -71 52 -71
-18 0 -74 23 -135 56 -58 31 -105 54 -105 51 0 -3 72 -44 160 -92 177 -95 232
-145 163 -145 -17 0 -86 37 -186 100 -174 110 -225 131 -72 30 119 -78 154
-120 101 -120 -15 0 -62 29 -121 76 -53 41 -99 74 -101 71 -2 -2 14 -17 37
-32 39 -28 69 -61 69 -77 0 -23 -50 -4 -85 32 -38 39 -73 57 -43 23 38 -45 25
-69 -20 -37 -32 22 -27 11 18 -41 38 -44 52 -85 29 -85 -12 0 -52 39 -88 85
l-23 30 17 -29 c10 -16 42 -63 71 -104 30 -41 54 -86 54 -98 0 -54 -44 -15
-115 101 -31 52 -59 94 -62 92 -2 -2 37 -73 87 -156 70 -118 90 -160 88 -183
l-3 -30 -27 22 c-16 12 -60 84 -104 171 -42 82 -79 148 -81 145 -2 -2 17 -45
42 -96 34 -68 45 -101 43 -128 l-3 -36 -26 25 c-16 14 -42 64 -65 121 -38 101
-59 128 -30 40 11 -31 14 -57 8 -71 -8 -22 -8 -22 -26 -2 -10 11 -24 41 -31
68 -12 44 -13 45 -14 16 -1 -18 -6 -33 -11 -33 -6 0 -17 15 -25 33 -17 39 -19
14 -5 -51 7 -30 7 -49 -1 -64 -18 -33 -40 -1 -46 71 -3 33 -10 61 -15 61 -5 0
-7 -12 -4 -27 17 -90 26 -223 16 -243 -13 -25 -19 -25 -36 -2 -9 12 -13 54
-14 140 0 78 -4 122 -11 122 -7 0 -8 -55 -3 -174 5 -135 4 -182 -6 -207 -13
-29 -14 -30 -27 -13 -10 13 -13 68 -14 213 -1 137 -4 179 -9 141 -5 -30 -8
-85 -9 -121 -1 -49 -6 -73 -20 -90 -18 -23 -18 -23 -29 -3 -8 15 -7 49 4 128
8 60 13 115 11 125 -2 9 -7 -11 -11 -44 -7 -54 -27 -95 -46 -95 -16 0 -17 43
-3 96 16 63 11 85 -6 31 -7 -20 -19 -38 -28 -41 -13 -6 -15 0 -10 41 l5 48
-18 -54 c-19 -62 -55 -96 -67 -66 -3 10 -2 30 4 44 27 68 19 57 -24 -32 -44
-89 -64 -116 -85 -117 -22 0 -2 63 47 153 30 55 53 102 51 104 -2 2 -43 -68
-92 -156 -57 -103 -97 -164 -112 -170 -31 -15 -32 -14 -32 13 0 14 40 88 90
166 133 209 142 240 18 58 -43 -62 -80 -98 -102 -98 -1 0 -1 13 2 29 2 16 35
67 78 119 41 50 74 93 74 96 0 3 -24 -19 -53 -49 -29 -30 -59 -55 -65 -55 -26
0 -9 38 38 85 52 51 71 88 23 43 -16 -14 -36 -28 -45 -31 -29 -10 -21 22 12
50 17 14 29 28 26 30 -3 3 -29 -15 -58 -41 -51 -44 -88 -59 -88 -34 0 6 10 23
23 37 12 13 -10 -1 -50 -32 -69 -55 -113 -72 -113 -44 0 23 22 43 120 107 52
35 100 67 105 73 14 14 -48 -23 -199 -120 -85 -55 -139 -83 -158 -83 -28 0
-28 1 -14 28 10 19 62 54 184 122 94 52 169 96 167 98 -2 2 -55 -24 -118 -57
-109 -58 -149 -71 -161 -52 -12 19 28 46 145 97 126 54 153 74 42 30 -35 -14
-72 -22 -87 -19 -25 5 -26 7 -11 23 9 10 37 23 62 31 41 11 43 13 24 21 -32
11 -21 31 25 45 55 16 20 16 -42 -1 -76 -20 -136 -4 -85 24 11 5 57 16 103 24
111 19 60 19 -67 1 -117 -17 -164 -18 -185 -5 -13 8 -13 11 2 27 15 14 52 19
225 29 l208 12 -265 -5 c-146 -3 -267 -7 -269 -9 -4 -4 -61 25 -61 31 0 2 10
10 23 17 15 8 82 12 227 12 131 0 156 1 70 3 -113 3 -139 7 -160 23 -14 10
-21 22 -16 27 4 4 46 7 94 5 84 -2 85 -2 68 17 -18 19 -17 20 5 26 13 3 85 -6
159 -20 176 -33 197 -31 42 4 -67 15 -128 33 -134 39 -18 18 18 26 68 15 72
-17 50 4 -28 28 -72 21 -98 34 -98 50 0 20 42 17 105 -6 110 -42 84 -23 -42
30 -105 44 -153 75 -153 97 0 20 49 4 161 -53 67 -33 123 -59 125 -56 2 2 -73
46 -166 98 -114 63 -174 103 -185 121 -16 28 -16 28 13 28 20 0 79 -32 188
-103 194 -126 184 -119 184 -113 0 2 -50 37 -110 77 -103 67 -130 91 -130 118
0 29 54 4 148 -69 56 -44 105 -80 108 -80 4 0 -17 18 -45 41 -64 51 -88 89
-57 89 8 0 43 -23 78 -52 44 -36 53 -41 31 -17 -56 60 -39 81 22 28 53 -47 42
-20 -15 36 -47 47 -64 85 -38 85 7 0 38 -28 70 -62 32 -35 58 -59 58 -55 0 3
-35 51 -79 104 -69 87 -106 154 -84 153 26 -2 60 -37 123 -128 39 -56 73 -102
76 -102 4 0 0 10 -8 23 -8 12 -56 85 -106 163 -68 104 -92 149 -92 173 l0 32
30 -21 c18 -13 60 -76 109 -163 100 -178 118 -204 46 -65 -54 106 -68 158 -42
158 22 0 40 -28 92 -143 26 -59 50 -105 52 -103 2 2 -7 27 -21 55 -28 53 -33
86 -16 96 18 11 38 -14 56 -68 9 -29 21 -56 26 -62 5 -5 4 3 -1 18 -13 34 -14
77 -2 77 8 0 29 -38 44 -80 4 -10 6 -8 6 6 1 12 -6 41 -14 64 -14 40 -12 90 5
90 17 0 34 -35 46 -93 17 -85 16 -44 -1 82 -11 87 -11 109 -1 130 l13 25 14
-25 c8 -13 19 -80 25 -149 l11 -125 1 193 c2 194 10 248 35 222 9 -8 11 -70
10 -211z m1760 179 c70 -121 48 -176 -96 -244 -29 -13 -71 -24 -94 -24 -34 0
-46 5 -68 32 -33 39 -71 115 -63 124 8 7 280 151 290 153 3 1 17 -18 31 -41z
m-3553 -48 c12 -8 11 -17 -13 -66 -15 -31 -27 -58 -25 -59 10 -8 70 -36 73
-33 1 2 15 27 29 56 24 46 29 51 46 42 25 -13 25 -21 0 -70 -11 -22 -20 -43
-20 -48 0 -10 78 -48 84 -41 2 2 15 28 30 57 29 57 29 57 56 42 18 -10 17 -15
-21 -93 -22 -45 -43 -83 -47 -85 -13 -4 -302 137 -302 148 0 19 75 160 85 160
5 0 17 -5 25 -10z m3676 -215 c4 -14 5 -27 3 -29 -7 -6 -298 -116 -307 -116
-5 0 -14 11 -20 25 -10 22 -9 27 6 32 9 4 78 31 152 60 74 29 141 52 147 53 7
0 15 -11 19 -25z m-3519 -190 c7 -4 -22 -75 -31 -75 -81 4 -328 28 -332 33 -4
3 -3 18 0 33 7 26 9 26 64 20 31 -3 89 -8 127 -12 l70 -6 -107 64 c-59 35
-108 66 -108 70 0 4 4 18 10 32 l9 25 148 -91 c81 -50 149 -92 150 -93z m3563
57 c0 -15 -15 -33 -51 -58 -53 -39 -52 -54 2 -54 59 0 87 -12 94 -37 3 -14 4
-28 1 -30 -2 -3 -53 3 -112 12 -102 16 -112 16 -171 0 -35 -10 -65 -16 -67
-14 -2 2 -6 16 -10 31 -6 25 -3 27 47 38 68 16 87 27 177 99 76 61 90 63 90
13z m-3799 -192 c79 -17 155 -33 167 -35 20 -5 23 -10 17 -33 -4 -15 -8 -28
-9 -30 -4 -3 -326 64 -331 69 -3 4 5 59 10 59 1 0 67 -14 146 -30z m3699 -71
c85 -12 158 -25 162 -28 4 -4 9 -21 10 -40 l3 -33 -160 -68 c-136 -56 -161
-64 -167 -51 -15 34 -7 48 33 64 31 12 40 20 35 32 -3 9 -6 29 -6 45 0 25 -4
28 -41 33 -47 6 -44 4 -53 40 -8 33 -16 33 184 6z m-3539 -87 c4 -4 5 -21 2
-38 -5 -31 -7 -32 -126 -65 l-122 -34 115 -11 c63 -7 116 -12 118 -13 6 -2 1
-50 -5 -54 -12 -6 -327 23 -334 31 -4 4 -5 21 -2 38 5 30 8 32 126 66 l122 35
-115 9 c-99 8 -115 12 -118 27 -8 43 -3 44 169 29 90 -8 167 -17 170 -20z
m3729 -207 l0 -35 -65 0 -65 0 0 -39 0 -39 65 -7 c64 -6 65 -7 65 -36 l0 -29
-154 0 c-85 0 -161 3 -170 6 -10 4 -16 18 -16 35 l0 29 75 0 75 0 0 45 0 45
-75 0 -75 0 0 30 0 30 170 0 170 0 0 -35z m-3758 -93 c25 -25 36 -109 18 -141
-18 -36 -66 -49 -201 -56 l-126 -8 -5 28 c-3 15 -1 28 6 30 6 3 69 9 140 14
71 6 133 14 138 19 5 5 8 22 6 38 l-3 29 -146 -2 -147 -3 -6 26 c-4 15 -5 28
-4 30 7 6 214 22 261 20 33 -2 55 -10 69 -24z m3493 -472 l18 -60 69 0 c37 0
68 -4 68 -8 0 -4 -22 -25 -50 -45 -27 -21 -50 -43 -50 -51 0 -7 9 -38 19 -69
11 -32 17 -57 14 -57 -3 0 -30 18 -59 40 -29 22 -55 40 -57 40 -2 0 -27 -18
-57 -40 -29 -22 -55 -38 -58 -36 -3 4 15 67 35 122 2 6 -24 30 -59 55 l-63 44
79 5 80 5 18 63 c11 34 22 60 27 58 4 -3 16 -32 26 -66z m-3489 -52 l20 -63
73 -5 74 -5 -57 -39 c-31 -21 -56 -44 -56 -51 0 -6 9 -38 20 -70 11 -32 19
-60 17 -61 -1 -2 -26 15 -54 37 -29 21 -57 39 -63 39 -6 0 -34 -18 -63 -39
-28 -22 -53 -39 -54 -37 -1 1 7 33 18 70 11 37 19 69 17 70 -2 2 -29 21 -62
44 l-58 41 78 3 78 3 20 63 c11 34 23 62 26 62 3 0 15 -28 26 -62z m414 -537
c59 -80 52 -139 -22 -177 -44 -23 -91 -11 -125 30 l-26 34 -50 -39 c-27 -21
-52 -39 -56 -39 -5 0 -16 9 -25 19 -17 19 -14 23 116 125 73 58 136 105 140
103 4 -1 25 -26 48 -56z m2830 -31 c69 -29 128 -56 132 -59 4 -3 -1 -17 -11
-29 -17 -23 -18 -23 -55 -8 -21 9 -40 16 -41 16 -1 0 -15 -16 -30 -35 l-27
-36 27 -35 28 -36 -22 -21 -22 -22 -19 25 c-11 14 -58 78 -105 142 l-86 117
22 30 c21 28 24 29 53 17 17 -7 87 -37 156 -66z m-1656 -22 c12 -16 16 -47 16
-113 0 -99 -14 -135 -52 -135 -47 0 -58 25 -58 136 0 80 3 106 16 118 22 23
60 20 78 -6z m120 6 c13 -12 16 -38 16 -119 0 -113 -9 -135 -55 -135 -41 0
-55 34 -55 135 0 66 4 97 16 113 18 26 56 29 78 6z m117 6 c17 -10 19 -22 19
-120 0 -85 -3 -112 -16 -124 -19 -20 -44 -20 -70 -2 -27 20 -35 193 -10 231
17 27 45 32 77 15z m131 -7 c25 -23 27 -207 1 -235 -20 -22 -51 -23 -75 -1
-25 23 -27 207 -1 235 20 22 51 23 75 1z m1024 -139 c3 -29 11 -57 18 -62 6
-5 49 -22 96 -36 47 -15 91 -30 99 -32 11 -4 9 -11 -10 -30 l-25 -24 -74 25
c-40 14 -77 25 -81 25 -17 0 6 -48 39 -83 l36 -37 -21 -21 -21 -21 -113 117
c-63 65 -114 124 -114 133 0 8 8 20 17 26 15 9 25 3 63 -34 25 -24 45 -41 45
-36 0 4 -5 39 -11 77 -10 68 -10 72 12 95 l24 25 7 -26 c4 -15 10 -51 14 -81z
m-2403 7 c69 -72 73 -97 23 -147 -19 -19 -43 -34 -55 -34 -15 0 -21 -6 -21
-23 0 -12 -18 -44 -40 -71 -22 -26 -40 -53 -40 -59 0 -6 -11 0 -25 13 -14 13
-25 26 -25 30 0 3 16 25 35 47 40 47 44 72 15 98 -20 18 -22 18 -73 -33 -53
-52 -53 -53 -72 -32 -18 19 -18 21 1 42 56 66 209 228 214 228 4 0 32 -27 63
-59z m2286 -231 c91 -134 94 -141 75 -155 -10 -8 -22 -15 -26 -15 -4 0 -38 44
-74 98 -36 53 -63 88 -59 77 4 -11 22 -62 41 -114 26 -72 31 -97 23 -107 -19
-23 -34 -16 -105 49 -108 98 -112 98 -44 -2 48 -73 61 -98 53 -110 -22 -35
-40 -18 -131 120 -51 78 -92 142 -90 143 2 1 18 13 36 25 l34 23 36 -33 c20
-19 61 -56 90 -84 28 -27 52 -47 52 -45 0 3 -18 52 -40 110 -22 58 -40 108
-40 111 0 7 61 49 70 48 3 0 47 -63 99 -139z m-2073 70 c45 -28 59 -73 40
-128 -28 -79 -105 -171 -156 -187 -30 -9 -87 13 -110 42 -11 15 -20 41 -20 60
0 48 53 144 106 193 50 46 88 52 140 20z m217 -129 c76 -34 85 -43 68 -70 -8
-12 -18 -10 -65 9 -31 12 -58 21 -60 19 -2 -2 -11 -19 -20 -37 l-17 -32 56
-24 c53 -24 55 -26 44 -50 l-12 -25 -54 24 -54 24 -31 -64 c-33 -67 -42 -74
-72 -52 -16 12 -12 24 55 165 40 84 75 151 79 150 3 -2 41 -18 83 -37z m1533
-140 c100 -125 106 -135 89 -148 -27 -19 -35 -17 -64 17 l-26 31 -41 -17 c-41
-16 -41 -16 -36 -60 4 -39 2 -44 -22 -55 -14 -7 -28 -10 -29 -8 -5 5 -47 307
-47 331 0 16 46 50 62 45 3 -1 54 -62 114 -136z m-236 -104 c23 -87 41 -159
39 -162 -2 -2 -16 -6 -30 -10 -25 -6 -26 -3 -44 62 -10 37 -19 71 -21 74 -6
10 -84 -12 -84 -23 0 -5 7 -38 16 -74 9 -36 15 -66 13 -69 -2 -2 -15 -6 -29
-10 -25 -6 -26 -4 -68 155 -24 88 -40 165 -37 170 3 6 17 10 29 10 20 0 26 -9
40 -60 9 -33 20 -60 24 -60 4 0 24 5 44 10 l37 11 -18 64 -18 64 26 9 c14 5
29 7 32 3 3 -3 25 -77 49 -164z m-877 105 c42 -16 67 -54 67 -101 0 -47 -20
-132 -42 -174 -26 -52 -56 -62 -142 -48 -39 6 -72 14 -74 16 -4 4 9 80 54 308
6 27 7 28 52 21 26 -4 64 -13 85 -22z m304 -38 c33 -21 41 -80 16 -124 -16
-30 -17 -40 -7 -56 7 -10 14 -50 16 -87 l4 -68 -30 3 c-30 3 -31 5 -34 53 -4
89 -7 95 -52 95 l-40 0 0 -70 0 -70 -30 0 -30 0 0 98 c0 55 3 134 7 177 l6 77
76 -7 c42 -4 86 -13 98 -21z m-708 -129 c4 -5 -19 -65 -25 -65 -1 0 -14 4 -28
10 -23 8 -24 12 -14 40 9 28 14 31 37 25 14 -4 28 -8 30 -10z m876 -183 c-3
-8 -16 -12 -32 -10 -23 2 -29 8 -31 35 -3 28 0 32 25 35 23 2 29 -2 35 -22 5
-14 6 -31 3 -38z"/>
<path d="M3917 4738 c-34 -48 -35 -54 -20 -65 26 -20 41 -15 47 15 13 65 18
102 14 102 -2 0 -21 -24 -41 -52z"/>
<path d="M2284 4685 c4 -11 12 -41 18 -67 12 -51 21 -56 52 -33 18 13 17 16
-12 53 -17 21 -39 45 -48 53 -16 13 -17 12 -10 -6z"/>
<path d="M2238 3887 c-17 -14 -28 -33 -28 -47 0 -27 0 -27 45 43 21 33 18 33
-17 4z"/>
<path d="M1993 2735 c20 -79 32 -115 39 -115 16 0 7 40 -18 87 -15 26 -24 39
-21 28z"/>
<path d="M1981 2594 c-1 -29 4 -44 14 -48 19 -7 19 18 0 59 l-13 30 -1 -41z"/>
<path d="M2549 1896 c14 -14 30 -26 38 -26 25 0 13 16 -24 34 l-38 18 24 -26z"/>
<path d="M2660 1890 c19 -13 30 -13 30 0 0 6 -10 10 -22 10 -19 0 -20 -2 -8
-10z"/>
<path d="M4738 4113 c-32 -15 -58 -29 -58 -32 0 -3 8 -16 18 -29 l18 -23 47
56 c27 30 45 55 40 54 -4 0 -34 -12 -65 -26z"/>
<path d="M1568 4083 c-30 -36 -29 -42 12 -69 39 -26 41 -27 55 -8 20 26 18 58
-3 77 -24 22 -45 21 -64 0z"/>
<path d="M3201 3398 c-1 -32 -21 -39 -21 -8 0 11 -4 20 -9 20 -5 0 -7 -9 -4
-20 7 -25 -12 -26 -27 -2 -10 15 -10 14 -5 -4 8 -30 -40 -43 -61 -17 -13 17
-14 16 -9 -7 4 -18 0 -28 -16 -38 -18 -12 -23 -11 -35 5 -7 10 -14 13 -14 8 0
-6 5 -16 12 -23 6 -6 9 -15 5 -19 -4 -4 -13 -1 -19 5 -19 19 -33 14 -15 -6 22
-24 9 -37 -15 -15 -20 18 -25 4 -6 -15 17 -17 2 -28 -17 -12 -10 8 -15 9 -15
1 0 -6 5 -11 10 -11 6 0 10 -7 10 -15 0 -18 -12 -19 -28 -3 -8 8 -12 8 -12 1
0 -6 7 -14 16 -17 20 -8 9 -25 -14 -21 -9 1 -11 0 -4 -2 6 -3 12 -11 12 -19 0
-11 -6 -13 -20 -9 -11 4 -20 2 -20 -4 0 -6 7 -11 16 -11 12 0 15 -6 10 -22 -3
-13 -6 -31 -6 -40 0 -15 -13 -18 -82 -21 l-83 -3 83 -2 c75 -2 107 -14 65 -25
-17 -4 -17 -5 0 -6 9 0 17 -5 17 -10 0 -5 -8 -12 -17 -14 -17 -4 -17 -5 -1 -6
11 -1 21 -14 26 -33 7 -28 6 -35 -12 -46 -20 -11 -19 -12 7 -6 31 7 37 -9 10
-26 -16 -9 -15 -10 5 -5 24 7 29 -4 10 -24 -11 -11 -9 -12 10 -6 24 7 29 -4
11 -22 -9 -9 -7 -10 10 -6 24 6 27 -6 9 -27 -11 -12 -10 -12 5 -1 24 19 34 5
18 -22 -14 -22 -13 -22 7 -4 24 22 41 5 21 -21 -12 -15 -12 -15 7 1 25 21 37
12 23 -17 -10 -20 -9 -20 5 -2 20 25 40 12 25 -17 -9 -20 -9 -21 4 -4 22 26
70 13 62 -17 -6 -19 -5 -20 8 -3 19 23 25 22 30 -5 l4 -23 2 23 c0 12 6 22 11
22 6 0 10 -10 10 -22 1 -21 2 -22 14 -5 7 9 16 17 19 17 3 0 8 -8 10 -17 4
-14 5 -12 6 5 0 12 5 22 10 22 5 0 12 -10 14 -22 l4 -23 2 23 c1 26 27 30 34
5 4 -14 5 -12 6 5 1 26 18 30 24 5 4 -14 5 -12 6 5 1 27 9 28 28 5 14 -17 14
-17 9 0 -9 28 4 41 19 20 13 -17 14 -16 8 5 -6 24 6 29 24 11 9 -9 10 -7 6 10
-6 24 6 27 27 9 13 -11 13 -11 3 2 -19 21 -16 33 8 27 15 -4 18 -2 10 7 -16
19 -2 27 23 14 19 -10 20 -10 7 6 -11 13 -12 22 -3 42 10 21 15 23 34 14 21
-10 21 -10 6 3 -24 19 -23 27 5 28 17 1 18 2 4 6 -24 6 -15 29 9 25 18 -3 18
-3 1 10 -23 17 -13 45 16 51 22 4 22 4 0 6 -32 2 -29 19 5 24 l27 4 -27 2
c-58 3 -25 20 45 24 l72 3 -72 2 c-62 2 -73 5 -73 20 0 9 -3 27 -6 40 -5 16
-2 22 10 22 9 0 16 4 16 9 0 5 -9 7 -20 4 -25 -7 -26 12 -2 27 16 11 16 11 -1
6 -28 -9 -41 4 -20 20 17 14 17 15 -4 9 -25 -7 -30 4 -10 24 10 11 8 12 -10 6
-25 -7 -30 4 -10 24 10 11 8 11 -10 2 -18 -9 -23 -9 -23 2 0 7 6 19 13 26 10
11 8 11 -10 0 -27 -16 -41 -6 -22 18 11 15 11 16 -1 6 -21 -19 -33 -16 -27 8
4 17 3 19 -6 10 -18 -18 -30 -13 -24 12 5 20 5 20 -7 5 -19 -26 -29 -22 -23 9
4 24 4 26 -8 10 -17 -23 -25 -21 -26 6 -1 16 -2 18 -6 5 -2 -10 -11 -18 -19
-18 -11 0 -14 6 -9 23 5 20 5 20 -9 -3 -11 -19 -16 -21 -19 -10 -3 8 -8 22
-10 30 -4 9 -6 6 -6 -7 -1 -13 -5 -23 -10 -23 -5 0 -12 10 -14 23 l-4 22 -2
-22 c0 -13 -7 -23 -15 -23 -8 0 -17 10 -19 23 -4 19 -4 18 -6 -5z m14 -90 c-4
-9 -24 -23 -46 -33 -21 -10 -39 -22 -39 -27 0 -4 -7 -8 -15 -8 -8 0 -15 6 -15
14 0 18 27 46 45 46 7 0 23 9 36 19 25 21 44 15 34 -11z m121 -9 c-8 -12 -50
-36 -93 -55 -43 -19 -86 -45 -96 -59 -10 -14 -25 -25 -33 -25 -17 0 -17 2 -2
35 14 31 59 61 148 97 82 34 96 35 76 7z m74 -49 c8 -15 8 -30 0 -56 -13 -40
-35 -54 -82 -54 l-33 1 48 25 c48 25 48 25 27 42 -19 16 -20 19 -5 40 20 27
31 28 45 2z m-66 -36 c8 -21 -11 -44 -35 -44 -11 0 -19 -4 -19 -10 0 -19 -39
-10 -45 11 -7 22 5 43 12 22 7 -18 23 -16 23 3 0 11 6 14 20 9 14 -5 20 -2 20
9 0 21 16 20 24 0z m-327 -5 c8 -8 17 -8 33 1 18 10 25 9 38 -4 15 -15 15 -17
-1 -33 -14 -15 -21 -16 -37 -5 -16 10 -24 10 -40 0 -16 -11 -23 -10 -37 5 -16
16 -16 18 2 32 24 18 28 18 42 4z m240 -72 c12 5 14 1 7 -18 -10 -26 -9 -97 0
-106 3 -3 14 5 25 18 10 14 42 35 70 48 44 21 50 27 45 48 -4 16 0 31 11 43
23 25 36 25 69 -1 29 -23 35 -66 11 -75 -8 -4 -15 -16 -15 -27 0 -16 -3 -18
-12 -9 -18 18 -43 15 -69 -9 l-24 -20 88 6 87 7 -9 -23 c-6 -19 -20 -26 -69
-36 -82 -16 -117 -36 -132 -73 -14 -35 -1 -60 32 -60 12 0 24 -12 34 -35 19
-46 19 -45 -18 -45 -62 0 -115 47 -144 128 -7 20 -13 32 -14 25 0 -21 -52 -73
-91 -93 -82 -42 -149 -11 -149 68 0 25 -8 42 -26 59 -25 23 -26 29 -20 80 9
73 23 100 22 39 -1 -30 5 -51 16 -62 18 -18 16 -21 72 79 33 58 67 64 91 16
19 -36 41 -33 38 6 -1 16 7 42 20 59 l21 30 9 -36 c6 -27 13 -35 24 -31z m223
-201 c0 -8 -7 -16 -15 -20 -26 -9 -17 -29 10 -23 16 3 24 0 22 -7 -2 -6 -18
-12 -37 -14 -31 -3 -32 -2 -28 27 2 16 1 28 -4 25 -10 -6 -11 10 -1 19 12 13
53 7 53 -7z m-262 -106 c-30 -42 -76 -66 -92 -50 -8 9 -6 15 8 24 10 6 37 26
59 45 47 38 60 28 25 -19z m52 -44 c0 -29 -14 -56 -29 -56 -5 0 -6 85 -2 106
0 4 8 1 16 -6 8 -7 15 -27 15 -44z"/>
<path d="M3082 3057 c-6 -7 -14 -26 -17 -42 -6 -25 -5 -28 6 -18 10 10 16 9
31 -4 17 -15 20 -15 34 -1 13 13 12 18 -14 46 -23 24 -32 29 -40 19z"/>
<path d="M3182 3016 c-20 -10 -20 -13 -7 -27 14 -14 14 -17 -5 -34 -19 -17
-22 -18 -37 -2 -15 15 -19 15 -34 2 -14 -13 -18 -14 -28 -1 -10 12 -16 10 -38
-12 l-26 -26 24 -19 c29 -23 68 -17 121 18 42 28 73 78 61 99 -6 12 -12 12
-31 2z"/>
<path d="M3276 2958 c3 -13 10 -30 15 -38 7 -12 8 -10 9 7 0 12 5 25 10 28 19
11 10 25 -16 25 -22 0 -24 -3 -18 -22z"/>
<path d="M3096 3375 c4 -8 8 -15 10 -15 2 0 4 7 4 15 0 8 -4 15 -10 15 -5 0
-7 -7 -4 -15z"/>
<path d="M3030 3351 c0 -5 5 -13 10 -16 6 -3 10 -2 10 4 0 5 -4 13 -10 16 -5
3 -10 2 -10 -4z"/>
<path d="M3750 3305 c-14 -8 -20 -14 -14 -15 5 0 19 7 30 15 24 18 16 19 -16
0z"/>
<path d="M3810 3280 c-8 -5 -10 -10 -5 -10 6 0 17 5 25 10 8 5 11 10 5 10 -5
0 -17 -5 -25 -10z"/>
<path d="M2568 3113 c12 -2 30 -2 40 0 9 3 -1 5 -23 4 -22 0 -30 -2 -17 -4z"/>
<path d="M2868 3113 c7 -3 16 -2 19 1 4 3 -2 6 -13 5 -11 0 -14 -3 -6 -6z"/>
<path d="M3608 3113 c6 -2 18 -2 25 0 6 3 1 5 -13 5 -14 0 -19 -2 -12 -5z"/>
<path d="M2658 3103 c12 -2 30 -2 40 0 9 3 -1 5 -23 4 -22 0 -30 -2 -17 -4z"/>
<path d="M3793 3103 c9 -2 25 -2 35 0 9 3 1 5 -18 5 -19 0 -27 -2 -17 -5z"/>
<path d="M2743 3093 c9 -2 25 -2 35 0 9 3 1 5 -18 5 -19 0 -27 -2 -17 -5z"/>
<path d="M3703 3093 c9 -2 23 -2 30 0 6 3 -1 5 -18 5 -16 0 -22 -2 -12 -5z"/>
<path d="M2843 3083 c9 -2 23 -2 30 0 6 3 -1 5 -18 5 -16 0 -22 -2 -12 -5z"/>
<path d="M3618 3083 c6 -2 18 -2 25 0 6 3 1 5 -13 5 -14 0 -19 -2 -12 -5z"/>
<path d="M2803 2983 c9 -2 23 -2 30 0 6 3 -1 5 -18 5 -16 0 -22 -2 -12 -5z"/>
<path d="M2733 2973 c9 -2 23 -2 30 0 6 3 -1 5 -18 5 -16 0 -22 -2 -12 -5z"/>
<path d="M3638 2953 c7 -3 16 -2 19 1 4 3 -2 6 -13 5 -11 0 -14 -3 -6 -6z"/>
<path d="M2788 2943 c7 -3 16 -2 19 1 4 3 -2 6 -13 5 -11 0 -14 -3 -6 -6z"/>
<path d="M3678 2943 c7 -3 16 -2 19 1 4 3 -2 6 -13 5 -11 0 -14 -3 -6 -6z"/>
<path d="M2748 2933 c7 -3 16 -2 19 1 4 3 -2 6 -13 5 -11 0 -14 -3 -6 -6z"/>
<path d="M3718 2933 c7 -3 16 -2 19 1 4 3 -2 6 -13 5 -11 0 -14 -3 -6 -6z"/>
<path d="M2708 2923 c7 -3 16 -2 19 1 4 3 -2 6 -13 5 -11 0 -14 -3 -6 -6z"/>
<path d="M2675 2870 c-13 -6 -15 -9 -5 -9 8 0 22 4 30 9 18 12 2 12 -25 0z"/>
<path d="M3530 2846 c0 -2 7 -7 16 -10 8 -3 12 -2 9 4 -6 10 -25 14 -25 6z"/>
<path d="M3111 2694 c0 -11 3 -14 6 -6 3 7 2 16 -1 19 -3 4 -6 -2 -5 -13z"/>
<path d="M2734 2678 l-19 -23 23 19 c12 11 22 21 22 23 0 8 -8 2 -26 -19z"/>
<path d="M4853 3877 c-57 -28 -103 -56 -103 -62 0 -25 32 -55 58 -55 60 1 182
75 182 111 0 23 -17 59 -28 58 -4 0 -53 -23 -109 -52z"/>
<path d="M5035 3223 c4 -16 8 -29 9 -31 2 -1 31 8 66 21 l63 24 -39 6 c-22 4
-54 7 -73 7 -31 0 -33 -2 -26 -27z"/>
<path d="M1827 1809 c-30 -25 -35 -34 -27 -49 15 -27 47 -34 75 -16 27 17 32
45 15 77 -14 25 -19 24 -63 -12z"/>
<path d="M4642 1775 l43 -56 22 27 21 27 -60 29 c-33 15 -62 28 -64 28 -3 0
14 -25 38 -55z"/>
<path d="M1992 1627 l-32 -33 24 -23 c31 -29 71 -22 88 14 10 22 8 29 -12 50
-13 14 -26 25 -30 25 -3 0 -21 -15 -38 -33z"/>
<path d="M2195 1456 c-84 -89 -110 -187 -52 -194 31 -4 71 33 112 102 34 59
40 90 20 110 -25 24 -44 20 -80 -18z"/>
<path d="M3930 1293 c0 -17 20 -116 24 -121 4 -3 43 14 55 24 2 2 -11 22 -30
46 -46 60 -49 64 -49 51z"/>
<path d="M2832 1104 c-25 -125 -23 -134 24 -134 42 0 73 67 77 170 2 55 -5 67
-49 76 l-30 6 -22 -118z"/>
<path d="M3120 1136 c0 -25 5 -48 11 -51 18 -12 59 5 70 29 17 37 -4 66 -46
66 -35 0 -35 0 -35 -44z"/>
</g>
</svg>
